<?xml version="1.0" standalone="no"?>
<!DOCTYPE svg PUBLIC "-//W3C//DTD SVG 20010904//EN"
 "http://www.w3.org/TR/2001/REC-SVG-20010904/DTD/svg10.dtd">
<svg version="1.0" xmlns="http://www.w3.org/2000/svg"
 width="367.000000pt" height="367.000000pt" viewBox="0 0 367.000000 367.000000"
 preserveAspectRatio="xMidYMid meet">

<g transform="translate(0.000000,367.000000) scale(0.100000,-0.100000)"
fill="#008000" stroke="none">
<path d="M1640 3172 c0 -17 37 -42 63 -42 30 0 79 41 58 48 -7 2 -24 -2 -37
-9 -19 -10 -27 -10 -36 -1 -14 14 -48 16 -48 4z"/>
<path d="M1490 3094 c-13 -32 -13 -64 -1 -64 5 0 12 -18 16 -40 11 -66 41 -83
102 -59 15 7 40 11 55 10 15 -1 36 3 47 9 12 6 21 7 21 3 0 -4 36 -8 79 -8
l80 0 -1 49 c0 53 14 78 34 58 8 -8 7 -23 -4 -59 l-16 -48 34 -9 c50 -12 67
-2 59 34 -8 37 2 70 21 70 9 0 14 -11 14 -35 0 -19 -4 -35 -10 -35 -5 0 -10
-11 -10 -25 0 -19 5 -25 23 -25 12 0 31 -3 43 -6 20 -5 21 -2 22 76 1 77 0 81
-24 92 -18 8 -31 8 -50 -1 -21 -9 -28 -9 -38 3 -15 19 -37 25 -63 15 -12 -4
-23 -4 -25 1 -2 4 -20 11 -40 15 l-36 7 0 -57 c0 -38 -4 -60 -13 -66 -11 -7
-17 3 -26 43 -13 59 -23 68 -80 68 -57 0 -73 -8 -73 -36 0 -23 3 -24 39 -18
24 4 41 2 45 -5 4 -6 0 -11 -9 -11 -26 0 -75 -29 -75 -45 0 -25 -47 -18 -54 8
-10 37 -7 47 13 47 14 0 17 6 13 25 -3 19 -9 24 -22 20 -11 -3 -20 1 -24 10
-9 26 -55 19 -66 -11z m228 -95 c-2 -6 -8 -10 -13 -10 -5 0 -11 4 -13 10 -2 6
4 11 13 11 9 0 15 -5 13 -11z"/>
<path d="M1393 3050 c-28 -11 -29 -30 -3 -53 25 -21 28 -70 3 -65 -9 2 -23 22
-31 48 -8 25 -16 47 -18 48 -1 2 -19 -1 -38 -8 -37 -12 -48 -36 -22 -46 8 -3
18 -19 21 -34 4 -16 16 -41 27 -55 21 -26 45 -27 77 -1 7 6 19 11 25 11 6 0
26 4 44 9 28 6 32 11 26 29 -4 12 -12 26 -18 33 -7 6 -18 30 -26 53 -14 42
-25 48 -67 31z"/>
<path d="M1176 3037 c-17 -13 -13 -47 6 -47 24 0 46 21 41 40 -6 23 -22 25
-47 7z"/>
<path d="M2249 3013 c-20 -5 -41 -47 -33 -67 3 -8 17 -22 30 -31 13 -8 24 -20
24 -25 0 -17 -25 -11 -43 11 -20 23 -40 21 -45 -4 -5 -25 56 -58 101 -55 28 3
37 0 37 -12 0 -23 20 -40 46 -40 12 0 24 -7 27 -14 3 -8 20 -22 36 -31 30 -15
31 -15 37 12 3 16 15 47 27 69 19 39 20 43 5 66 -9 14 -36 34 -60 45 -43 21
-43 21 -57 1 -12 -17 -12 -21 0 -29 8 -5 19 -9 25 -9 13 0 39 -28 32 -35 -2
-3 -18 1 -35 7 -23 9 -38 9 -56 1 -22 -10 -23 -9 -20 12 4 16 -5 31 -29 54
-23 22 -28 31 -17 31 9 0 22 -7 29 -15 16 -19 36 -19 43 -1 11 27 -62 68 -104
59z m169 -184 c-2 -6 -8 -10 -13 -10 -5 0 -11 4 -13 10 -2 6 4 11 13 11 9 0
15 -5 13 -11z"/>
<path d="M2444 2999 c-9 -15 24 -59 52 -69 17 -7 32 -6 46 1 20 11 20 12 4 24
-9 7 -26 11 -37 8 -15 -4 -22 0 -26 15 -6 23 -29 36 -39 21z"/>
<path d="M1197 2974 c-19 -10 -27 -21 -23 -31 3 -8 6 -17 6 -19 0 -2 7 -4 16
-4 9 0 26 -23 41 -56 23 -51 24 -56 9 -73 -16 -18 -13 -51 6 -51 23 0 68 32
73 53 7 28 -68 197 -87 197 -7 -1 -26 -8 -41 -16z"/>
<path d="M1101 2919 c-13 -5 -36 -20 -51 -32 -26 -23 -27 -38 -4 -66 2 -2 17
8 34 23 42 35 59 23 20 -14 -36 -33 -38 -63 -8 -84 29 -20 30 -20 58 7 14 12
27 22 30 22 3 0 20 9 38 21 l32 20 -54 57 c-57 60 -58 61 -95 46z m49 -103 c0
-17 -14 -29 -23 -20 -8 8 3 34 14 34 5 0 9 -6 9 -14z"/>
<path d="M1500 2820 c-17 -41 -28 -46 -39 -18 -8 19 -10 16 -10 -22 -1 -35 4
-48 19 -58 17 -10 26 -7 67 19 27 17 40 29 30 25 -10 -3 -25 0 -32 8 -12 12
-12 16 0 26 8 7 15 17 15 23 0 5 -9 2 -21 -9 -20 -18 -20 -18 -14 9 9 36 0 34
-15 -3z"/>
<path d="M1545 2790 c-3 -5 -2 -10 4 -10 5 0 13 5 16 10 3 6 2 10 -4 10 -5 0
-13 -4 -16 -10z"/>
<path d="M2579 2741 c-45 -45 -40 -82 19 -139 26 -26 59 -62 74 -81 23 -30 29
-33 43 -21 9 7 14 19 11 25 -12 32 45 47 74 20 14 -13 19 -13 35 -1 16 12 17
16 6 30 -7 9 -20 16 -28 16 -8 0 -13 6 -10 13 2 7 -6 26 -19 42 l-24 30 -33
-37 c-32 -37 -106 -78 -77 -43 11 13 9 20 -15 45 -28 29 -28 30 -10 50 20 23
40 22 40 -2 0 -8 7 -23 14 -32 13 -15 16 -15 37 5 22 20 22 24 9 50 -34 64
-98 78 -146 30z"/>
<path d="M860 2732 c-40 -41 -41 -83 -1 -123 42 -42 84 -40 127 7 37 38 41 55
21 73 -11 8 -20 4 -40 -19 -26 -28 -47 -39 -47 -23 0 4 14 22 32 40 28 29 30
35 17 48 -8 8 -29 17 -46 21 -27 5 -37 1 -63 -24z m50 -36 c0 -8 -4 -17 -9
-21 -12 -7 -24 12 -16 25 9 15 25 12 25 -4z"/>
<path d="M1445 2648 c-37 -93 -29 -187 20 -253 12 -17 55 -48 95 -70 89 -49
120 -83 120 -134 0 -41 -14 -64 -90 -146 -53 -57 -89 -117 -116 -190 -9 -27
-19 -51 -20 -53 -1 -2 -17 4 -36 14 -18 9 -71 29 -118 44 l-85 27 -6 95 c-5
86 -9 101 -38 147 -37 57 -50 68 -26 21 9 -17 13 -36 9 -42 -4 -6 -3 -8 3 -5
6 4 13 -7 16 -26 6 -37 -3 -167 -11 -167 -18 0 -74 50 -100 89 -35 52 -57 108
-77 196 l-13 60 -1 -60 c-1 -105 39 -217 102 -283 45 -47 99 -77 221 -121 152
-55 156 -59 156 -129 0 -73 22 -149 66 -229 l35 -63 -46 0 c-25 0 -45 4 -45 9
0 22 -57 74 -120 111 -38 22 -83 52 -101 67 -27 23 -30 24 -21 6 7 -11 41 -44
76 -72 63 -50 116 -105 116 -120 0 -4 -32 -17 -70 -30 l-71 -22 -33 21 c-19
11 -70 27 -113 35 -43 7 -86 17 -95 20 -26 10 -22 -12 5 -29 12 -8 38 -17 57
-21 19 -4 55 -18 80 -30 l45 -23 -30 -14 c-18 -7 -68 -13 -125 -13 -87 0 -99
3 -144 29 -27 15 -67 45 -89 65 -24 21 -38 29 -34 19 5 -13 1 -18 -12 -18 -27
0 -44 -23 -28 -39 9 -10 9 -11 -3 -8 -8 2 -12 2 -7 0 4 -3 4 -9 1 -15 -3 -5 5
-4 17 3 13 7 30 15 37 18 8 4 30 -9 52 -30 74 -71 197 -92 345 -61 50 11 92
18 93 16 6 -4 -53 -86 -84 -118 -16 -16 -42 -35 -59 -42 -23 -10 -25 -13 -10
-14 29 0 117 44 141 71 12 13 33 43 48 66 40 65 61 74 181 81 122 6 104 16
233 -128 108 -120 136 -179 130 -264 -6 -72 -45 -156 -110 -235 -23 -30 -51
-64 -61 -77 l-19 -24 205 0 204 0 6 63 c3 34 15 107 26 162 28 140 12 195 -87
305 -50 56 -50 56 -37 94 19 55 37 71 141 121 82 41 95 50 113 88 12 24 21 50
21 57 0 26 50 87 91 110 29 15 73 27 144 35 89 11 108 17 146 45 44 33 38 34
-36 6 -22 -8 -64 -15 -93 -16 l-52 0 48 62 c48 62 53 66 161 104 8 2 11 7 9
10 -8 8 -141 -17 -156 -29 -14 -11 -41 16 -42 42 0 11 -4 10 -16 -5 -8 -10
-13 -14 -10 -8 3 6 -1 11 -8 11 -8 0 -12 -7 -8 -15 4 -11 1 -13 -9 -7 -8 5 -6
0 4 -12 14 -16 15 -22 5 -26 -7 -3 -4 -6 8 -6 31 -1 35 -10 17 -40 -31 -50
-67 -81 -105 -91 -20 -6 -50 -22 -66 -35 l-29 -24 -7 76 c-3 42 -6 95 -6 117
0 97 56 220 107 232 13 4 60 -1 104 -10 63 -13 85 -14 102 -4 20 10 12 14 -67
30 -49 10 -91 20 -94 23 -7 7 99 52 153 66 57 14 58 29 2 29 -146 0 -294 -125
-345 -290 l-18 -60 -42 35 c-27 24 -46 51 -54 77 l-12 41 -8 -29 c-13 -48 0
-77 61 -140 l58 -59 6 -95 c11 -156 -11 -199 -127 -254 -72 -34 -131 -83 -142
-118 -3 -10 -8 -18 -12 -18 -7 0 -159 177 -192 223 -23 31 -18 123 8 174 12
23 52 75 88 115 78 86 120 169 128 253 l6 60 -14 -45 c-18 -64 -38 -99 -85
-150 -47 -52 -51 -44 -15 34 16 35 24 68 22 88 l-4 33 -12 -30 c-7 -16 -28
-60 -47 -96 -19 -37 -35 -79 -35 -93 0 -16 -17 -47 -44 -80 -24 -30 -49 -71
-56 -93 -6 -21 -14 -44 -16 -52 -7 -21 -39 35 -65 112 -27 80 -22 168 15 252
37 84 98 122 236 146 124 22 212 65 230 113 4 11 7 22 5 24 -1 1 -36 -15 -76
-37 -46 -25 -104 -46 -154 -56 -44 -8 -89 -18 -100 -21 -73 -18 184 135 290
174 221 79 320 161 114 93 -55 -18 -106 -30 -114 -27 -19 7 -28 66 -16 99 16
42 -3 24 -24 -23 -14 -31 -16 -47 -9 -68 10 -27 8 -28 -96 -79 -58 -28 -120
-61 -137 -73 l-33 -22 0 35 c0 59 -41 105 -156 173 -18 11 -18 12 3 35 24 27
38 75 47 162 4 39 3 56 -4 52 -5 -3 -10 -24 -10 -46 0 -56 -22 -102 -64 -134
-31 -24 -38 -26 -53 -14 -40 34 -53 113 -32 209 14 65 7 73 -16 18z"/>
<path d="M1509 2660 c-11 -12 -13 -23 -7 -39 10 -28 35 -24 56 7 13 19 13 22
0 17 -8 -3 -18 2 -24 13 -8 17 -10 17 -25 2z"/>
<path d="M2021 2634 c-9 -21 -14 -24 -26 -14 -13 11 -14 8 -11 -20 3 -28 19
-50 36 -50 3 0 16 9 30 20 17 13 20 20 10 20 -11 1 -10 4 4 15 12 9 15 15 7
15 -8 0 -11 7 -7 18 4 11 -1 9 -15 -7 l-20 -25 6 27 c9 34 2 35 -14 1z"/>
<path d="M776 2634 c-4 -10 -13 -13 -27 -9 -43 14 -61 -65 -20 -90 9 -5 18
-10 21 -10 3 0 21 -10 41 -23 20 -12 46 -22 57 -22 22 0 62 43 62 67 0 19 -27
28 -44 13 -12 -9 -20 -8 -40 5 -28 18 -32 30 -16 40 15 9 12 19 -9 32 -16 10
-20 9 -25 -3z"/>
<path d="M1540 2540 c-13 -11 -18 -20 -11 -20 7 0 10 -4 7 -9 -7 -10 19 -23
28 -14 3 4 6 13 5 22 0 12 -2 11 -8 -3 -7 -18 -8 -18 -14 -3 -6 17 3 22 32 17
13 -1 13 1 2 14 -16 20 -13 20 -41 -4z"/>
<path d="M2798 2500 c-58 -31 -62 -92 -10 -151 24 -26 29 -28 45 -17 18 13 17
15 -2 40 -21 26 -28 58 -13 58 4 0 17 -18 30 -40 20 -35 25 -39 43 -30 32 18
44 54 29 89 -24 59 -71 79 -122 51z m82 -66 c0 -8 -4 -14 -9 -14 -11 0 -22 26
-14 34 9 9 23 -3 23 -20z"/>
<path d="M1386 2455 c4 -9 0 -15 -8 -15 -9 0 -14 -9 -13 -22 1 -13 5 -22 8
-20 4 1 16 2 27 2 27 0 27 41 0 57 -16 11 -18 10 -14 -2z"/>
<path d="M562 2436 c-10 -22 -8 -26 9 -31 14 -5 25 -1 34 12 19 24 18 30 -1
37 -25 10 -30 7 -42 -18z"/>
<path d="M2180 2440 c0 -22 -16 -27 -23 -7 -3 6 -4 2 -4 -10 1 -13 5 -23 10
-23 4 0 6 -4 2 -9 -3 -5 -1 -13 5 -16 13 -8 42 14 35 25 -3 5 0 10 7 12 8 3 4
12 -10 26 -21 21 -22 21 -22 2z"/>
<path d="M624 2409 c-17 -34 -10 -50 23 -54 36 -5 63 -18 63 -30 0 -12 21 -25
39 -25 4 0 15 16 24 36 14 28 15 39 6 51 -7 7 -19 11 -27 8 -8 -3 -34 6 -58
20 -23 14 -45 25 -48 25 -3 0 -13 -14 -22 -31z"/>
<path d="M2078 2413 c20 -8 14 -23 -10 -23 -21 0 -21 0 -2 -16 10 -8 12 -12 4
-8 -8 4 -11 3 -7 -1 14 -16 36 -13 54 7 17 19 17 20 -2 34 -10 8 -26 14 -34
13 -11 0 -12 -2 -3 -6z"/>
<path d="M1940 2360 c0 -7 -6 -10 -12 -8 -7 3 -21 -4 -30 -14 -16 -15 -16 -18
-2 -18 8 0 12 -4 9 -10 -4 -6 8 -10 29 -10 31 0 36 3 36 24 0 13 -7 29 -15 36
-12 10 -15 10 -15 0z"/>
<path d="M1010 2347 c0 -20 -16 -23 -23 -4 -3 6 -6 -1 -6 -16 -1 -32 18 -43
47 -28 20 11 24 33 7 48 -4 4 -5 1 -1 -7 4 -8 0 -6 -8 4 -14 17 -16 18 -16 3z"/>
<path d="M2896 2341 c-13 -14 -16 -28 -10 -56 5 -30 4 -37 -7 -33 -8 3 -13 13
-12 24 1 10 -3 26 -8 36 -8 14 -14 16 -29 8 -15 -8 -17 -16 -10 -39 21 -74 56
-102 96 -76 20 13 24 24 24 61 0 28 4 43 10 39 6 -3 10 -19 10 -36 0 -22 5
-29 20 -29 27 0 27 44 0 88 -23 37 -57 43 -84 13z"/>
<path d="M588 2313 c-50 -57 -48 -119 5 -147 47 -26 87 -18 114 23 25 37 29
77 10 102 -31 40 -103 52 -129 22z m87 -83 c-9 -15 -51 -12 -64 3 -8 10 -7 17
1 25 13 13 72 -13 63 -28z"/>
<path d="M895 2307 c4 -22 1 -29 -20 -39 l-25 -11 31 -23 c43 -32 69 -16 68
41 -1 22 -3 32 -6 23 -6 -26 -20 -22 -38 10 l-16 27 6 -28z"/>
<path d="M860 2311 c0 -5 7 -15 17 -22 15 -13 15 -12 4 9 -12 23 -21 28 -21
13z"/>
<path d="M1151 2293 c-1 -7 -7 -13 -15 -13 -18 0 -29 -42 -13 -52 20 -13 42
-4 39 16 -2 9 3 25 10 34 8 9 8 13 1 9 -6 -4 -14 -1 -16 5 -4 10 -6 10 -6 1z"/>
<path d="M2772 2238 c-39 -25 -30 -43 17 -33 32 7 34 9 23 37 -6 16 -10 16
-40 -4z"/>
<path d="M2346 2227 c3 -10 9 -15 12 -12 3 3 0 11 -7 18 -10 9 -11 8 -5 -6z"/>
<path d="M2383 2220 c1 -18 -2 -24 -13 -22 -12 3 -12 1 -3 -9 15 -15 6 -39
-16 -40 -13 0 -13 -2 2 -8 10 -4 18 -11 18 -16 0 -18 36 -24 57 -9 16 11 21
25 20 56 0 40 -1 41 -14 17 -13 -23 -13 -23 -8 9 4 20 2 32 -4 32 -6 0 -9 -7
-6 -15 10 -24 -12 -17 -24 8 l-11 22 2 -25z"/>
<path d="M2550 2225 c-7 -8 -16 -12 -21 -9 -29 18 -44 11 -46 -22 -4 -46 22
-60 63 -33 21 13 24 19 12 19 -22 0 -22 4 -2 35 18 27 14 34 -6 10z"/>
<path d="M2653 2228 c18 -46 17 -51 -7 -23 -31 36 -45 29 -15 -8 21 -28 11
-39 -11 -12 -7 8 -18 15 -24 15 -6 -1 3 -12 19 -26 l30 -26 -27 5 c-16 2 -28
3 -28 2 0 -1 23 -17 52 -35 l51 -33 21 24 c17 20 21 34 17 70 -3 35 -6 39 -10
20 -9 -34 -29 -38 -37 -7 -3 14 -13 31 -22 38 -13 11 -15 10 -9 -4z"/>
<path d="M2981 2206 c-8 -9 -20 -16 -28 -16 -8 0 -27 -7 -43 -15 -23 -12 -30
-22 -30 -46 0 -17 5 -40 12 -52 6 -12 13 -42 15 -67 2 -24 6 -46 9 -49 3 -3
19 2 37 12 18 9 51 20 75 23 35 6 42 10 42 29 0 36 -11 55 -31 55 -10 0 -19
-4 -19 -9 0 -10 -66 -24 -79 -17 -17 11 2 57 27 67 24 9 34 4 44 -23 2 -4 12
-5 24 -2 16 4 20 11 16 30 -3 17 0 24 12 24 13 0 15 6 10 28 -4 15 -7 28 -8
29 -1 0 -17 4 -37 8 -26 5 -39 2 -48 -9z"/>
<path d="M446 2129 c-4 -22 -4 -44 -1 -49 3 -5 25 -7 49 -4 66 10 62 -9 -10
-40 -41 -18 -64 -34 -64 -45 0 -9 -3 -34 -7 -55 l-6 -39 35 7 c39 7 141 -10
146 -24 2 -6 14 -10 27 -10 19 0 24 7 30 41 9 49 -2 59 -55 52 -21 -3 -45 -1
-54 4 -13 7 -1 15 56 39 68 27 73 31 80 68 5 21 7 40 6 42 -2 1 -41 9 -88 17
-46 8 -86 20 -88 26 -2 6 -14 11 -27 11 -19 0 -24 -7 -29 -41z"/>
<path d="M1101 2092 c-1 -15 -5 -21 -13 -17 -7 4 -4 0 6 -9 10 -8 22 -13 26
-11 4 2 7 -2 7 -10 0 -8 -4 -12 -8 -10 -7 5 -22 -25 -16 -31 10 -10 39 25 43
52 3 23 1 31 -11 31 -8 0 -15 -5 -16 -11 -1 -6 -5 0 -9 14 -8 25 -8 25 -9 2z"/>
<path d="M3094 2074 c-6 -3 -9 -16 -6 -29 3 -18 11 -25 28 -25 26 0 27 3 18
38 -6 21 -17 26 -40 16z"/>
<path d="M1069 2035 c12 -6 18 -14 15 -18 -4 -4 -4 -7 -1 -7 3 0 11 8 16 18 9
16 6 19 -20 19 -29 0 -29 -1 -10 -12z"/>
<path d="M2610 2033 c0 -10 -6 -13 -16 -9 -15 6 -15 4 -3 -11 8 -10 18 -21 23
-25 16 -11 43 9 48 34 4 20 0 24 -24 25 -19 0 -28 -4 -28 -14z"/>
<path d="M928 2013 c-14 -3 -16 -9 -8 -23 8 -15 5 -22 -12 -34 -12 -9 -17 -16
-11 -16 7 0 15 5 18 10 3 6 11 10 17 10 6 0 3 -9 -7 -20 -10 -11 -14 -20 -9
-20 5 0 15 9 22 20 15 24 47 28 38 4 -3 -8 -2 -13 3 -10 16 10 22 57 10 72
-11 14 -28 16 -61 7z"/>
<path d="M1907 1993 c-12 -11 -8 -23 8 -23 8 0 15 7 15 15 0 16 -12 20 -23 8z"/>
<path d="M3056 1964 c-38 -7 -70 -15 -71 -16 -2 -2 -1 -15 2 -30 5 -28 6 -28
84 -28 l79 0 0 45 c0 51 5 49 -94 29z"/>
<path d="M2420 1955 c0 -8 9 -15 19 -15 10 0 21 7 25 15 4 11 -1 15 -19 15
-16 0 -25 -6 -25 -15z"/>
<path d="M2920 1915 c0 -35 12 -43 38 -26 20 12 4 61 -19 61 -15 0 -19 -7 -19
-35z"/>
<path d="M1772 1920 c-20 -16 -20 -19 -4 -25 15 -7 15 -8 -3 -15 -18 -8 -17
-9 6 -9 37 -1 55 22 37 48 -13 18 -14 18 -36 1z"/>
<path d="M2117 1934 c-8 -8 1 -24 14 -24 5 0 9 7 9 15 0 15 -12 20 -23 9z"/>
<path d="M2161 1867 c-14 -17 3 -41 23 -34 9 4 16 13 16 21 0 19 -26 28 -39
13z"/>
<path d="M1710 1821 c-14 -27 -13 -31 6 -24 14 5 15 3 5 -15 -10 -18 -9 -21 4
-16 8 3 12 10 9 15 -3 5 2 9 10 9 23 0 20 27 -4 40 -15 8 -21 6 -30 -9z"/>
<path d="M2580 1712 c-19 -9 -20 -34 -1 -40 9 -3 11 0 7 7 -4 7 -2 18 4 26 14
16 13 17 -10 7z"/>
<path d="M2390 1697 c0 -8 -4 -17 -10 -19 -6 -2 -6 -9 0 -18 12 -19 42 -3 46
24 1 10 0 15 -3 12 -4 -3 -12 -1 -20 5 -10 9 -13 8 -13 -4z"/>
<path d="M2592 1688 c2 -6 10 -14 16 -16 7 -2 10 2 6 12 -7 18 -28 22 -22 4z"/>
<path d="M2742 1668 c2 -7 -4 -12 -13 -10 -18 2 -33 -23 -23 -39 3 -5 17 -9
32 -9 15 0 22 4 17 8 -12 8 -13 22 -2 39 4 6 3 15 -3 18 -6 4 -9 1 -8 -7z"/>
<path d="M1253 1603 c-18 -6 -16 -43 1 -43 8 0 17 3 19 8 8 13 -8 39 -20 35z"/>
<path d="M2644 1596 c-3 -9 -11 -13 -18 -9 -6 4 -5 -1 3 -10 7 -9 19 -17 26
-17 19 0 24 23 9 38 -12 11 -15 10 -20 -2z"/>
<path d="M1314 1544 c2 -36 35 -53 53 -28 7 10 13 23 13 29 0 13 -28 13 -49 0
-9 -5 -12 -4 -7 3 3 6 2 13 -2 16 -5 3 -8 -6 -8 -20z"/>
<path d="M777 1456 c-3 -8 1 -17 9 -20 22 -9 23 -8 17 14 -6 23 -19 26 -26 6z"/>
<path d="M1065 1431 c-7 -12 12 -24 25 -16 11 7 4 25 -10 25 -5 0 -11 -4 -15
-9z"/>
<path d="M880 1422 c22 -10 19 -33 -5 -44 -15 -6 -12 -7 10 -2 l29 5 -19 -22
-20 -23 25 17 c32 22 51 22 43 0 -3 -12 0 -10 11 5 10 12 16 32 14 45 -3 19
-10 22 -53 24 -27 1 -43 -1 -35 -5z"/>
<path d="M766 1238 c4 -5 -2 -8 -11 -6 -10 2 -20 -3 -22 -9 -3 -7 0 -13 7 -13
6 0 8 5 4 12 -4 7 -3 8 4 4 6 -4 9 -13 5 -21 -4 -11 -1 -13 11 -9 9 3 13 10
10 15 -3 6 -1 16 5 23 8 9 7 13 -4 13 -8 0 -12 -4 -9 -9z"/>
<path d="M855 1210 c3 -5 -4 -10 -17 -11 -21 -1 -21 -1 -3 -7 26 -9 26 -36 0
-57 -18 -15 -17 -15 12 0 46 22 56 20 49 -12 -5 -22 -4 -25 4 -13 52 74 49
110 -11 110 -24 0 -38 -4 -34 -10z"/>
<path d="M1175 1200 c-4 -6 -11 -7 -17 -4 -6 4 -6 -1 1 -14 14 -27 14 -35 -1
-26 -7 4 -8 3 -4 -4 4 -7 18 -12 32 -12 20 0 24 5 24 30 0 23 -3 28 -17 23
-11 -4 -14 -3 -9 5 4 7 5 12 2 12 -3 0 -8 -5 -11 -10z"/>
<path d="M810 1160 c-8 -5 -10 -10 -5 -10 6 0 17 5 25 10 8 5 11 10 5 10 -5 0
-17 -5 -25 -10z"/>
<path d="M954 1107 c-3 -9 -11 -14 -18 -10 -6 4 -5 -1 3 -10 27 -34 54 -14 31
23 -8 12 -10 12 -16 -3z"/>
<path d="M1147 1016 c-3 -8 2 -16 13 -19 18 -5 35 15 23 27 -11 11 -31 6 -36
-8z"/>
<path d="M1092 908 c-17 -17 -15 -32 8 -53 11 -10 20 -14 20 -10 0 4 10 0 22
-11 17 -14 20 -15 9 -2 -15 20 -7 38 17 39 12 0 11 3 -5 9 -25 10 -30 26 -10
33 6 3 -2 6 -18 6 -17 1 -36 -4 -43 -11z"/>
<path d="M1150 856 c0 -2 7 -7 16 -10 8 -3 12 -2 9 4 -6 10 -25 14 -25 6z"/>
<path d="M2748 763 c-96 -75 -97 -76 -80 -98 9 -12 21 -21 27 -19 13 4 105
-114 105 -135 0 -9 7 -24 15 -34 13 -17 20 -14 109 58 53 42 96 78 96 81 0 9
-63 84 -70 84 -4 0 -19 -9 -33 -21 -25 -19 -26 -21 -11 -45 13 -19 14 -27 4
-39 -17 -20 -22 -19 -43 11 -13 18 -16 29 -8 37 14 18 -3 40 -25 33 -13 -3
-25 3 -37 19 -17 23 -17 25 4 36 18 9 24 8 31 -5 13 -23 31 -20 58 8 l23 25
-33 40 c-17 23 -32 41 -33 41 -1 0 -46 -35 -99 -77z"/>
<path d="M647 782 c-34 -35 -34 -66 -2 -126 14 -26 23 -51 20 -56 -9 -14 -35
0 -35 19 0 10 -14 28 -31 40 l-32 24 -18 -24 c-26 -33 -24 -41 19 -86 71 -73
137 -88 182 -43 34 34 35 65 4 125 -15 30 -24 58 -21 61 9 9 37 -15 37 -31 0
-7 11 -20 25 -29 25 -16 27 -16 45 6 11 13 19 26 20 30 0 14 -73 89 -101 104
-44 22 -82 18 -112 -14z"/>
<path d="M864 678 c-4 -13 -7 -28 -6 -34 3 -18 -79 -155 -88 -149 -9 5 -30
-25 -30 -42 0 -5 29 -26 65 -47 53 -31 68 -36 80 -26 19 16 19 37 -1 48 -13 7
-13 13 -3 35 13 30 21 32 50 17 29 -16 40 19 11 38 -18 12 -19 17 -10 38 14
30 44 28 41 -2 -2 -14 6 -25 24 -33 14 -6 26 -10 28 -9 1 2 11 19 23 39 l22
37 -57 32 c-32 18 -77 43 -100 57 l-41 24 -8 -23z"/>
<path d="M2528 621 c-28 -15 -48 -33 -48 -43 0 -9 11 -62 24 -118 14 -56 23
-106 21 -113 -3 -7 2 -20 9 -30 13 -16 16 -16 60 9 25 14 48 30 51 35 7 11
-16 46 -30 47 -21 2 -15 29 10 40 14 6 25 8 26 4 0 -4 2 -19 3 -34 3 -48 17
-50 84 -12 42 24 60 39 55 47 -15 24 -200 197 -209 196 -5 -1 -30 -13 -56 -28z
m68 -106 c15 -23 12 -45 -5 -45 -4 0 -12 16 -18 35 -13 41 -1 46 23 10z"/>
<path d="M2265 506 c-47 -18 -59 -27 -57 -42 2 -11 10 -24 18 -31 21 -16 56
-110 59 -162 2 -24 7 -47 12 -52 8 -8 189 53 205 70 9 8 -12 81 -23 81 -27 0
-59 -22 -59 -40 0 -14 -5 -20 -16 -18 -10 2 -26 30 -41 72 -20 56 -23 74 -14
89 14 21 6 57 -12 56 -7 0 -39 -10 -72 -23z"/>
<path d="M1225 499 c-4 -5 -4 -21 -1 -34 8 -30 -22 -156 -40 -171 -7 -5 -16
-22 -19 -35 -6 -24 -3 -26 50 -38 31 -7 59 -10 62 -8 3 3 5 18 5 34 0 52 9
113 17 113 4 0 21 -39 37 -86 30 -89 34 -94 100 -108 l31 -7 28 110 c23 95 30
111 47 111 19 0 20 -4 13 -82 -4 -47 -13 -88 -21 -96 -8 -7 -14 -22 -14 -33 0
-15 7 -19 33 -19 17 0 48 -3 68 -6 33 -6 37 -4 41 20 3 15 1 29 -4 32 -12 7 0
166 12 174 5 3 11 17 15 31 l6 26 -103 12 c-57 6 -114 12 -128 14 -24 2 -25 0
-26 -56 -1 -76 -16 -91 -34 -35 -36 113 -44 123 -100 136 -63 15 -67 15 -75 1z"/>
<path d="M2067 459 c-79 -13 -121 -66 -113 -142 8 -72 34 -119 80 -141 85 -41
206 24 206 112 0 124 -66 190 -173 171z m44 -85 c5 -15 12 -54 16 -86 6 -59 6
-60 -18 -56 -21 3 -26 12 -38 70 -7 36 -11 74 -8 82 10 25 36 19 48 -10z"/>
<path d="M1753 414 c-81 -40 -86 -209 -7 -260 33 -22 125 -25 172 -5 33 14 40
36 26 89 -6 19 -12 23 -42 20 -29 -2 -37 -8 -42 -28 -4 -16 -14 -26 -27 -28
-18 -3 -23 3 -28 30 -3 18 -5 56 -3 83 2 39 7 51 21 53 12 3 22 -5 29 -25 10
-25 14 -28 49 -25 39 4 39 4 39 48 0 39 -3 46 -26 54 -38 15 -125 12 -161 -6z"/>
<path d="M966 354 c-10 -25 -7 -30 18 -42 21 -9 25 -7 35 15 10 21 9 28 -1 34
-21 14 -45 10 -52 -7z"/>
</g>
</svg>
